<svg width="2482" height="3582" xmlns="http://www.w3.org/2000/svg" xmlns:xlink="http://www.w3.org/1999/xlink"
     xml:space="preserve" overflow="hidden"><defs><linearGradient x1="1238" y1="3575.5" x2="1238" y2="0.499836" gradientUnits="userSpaceOnUse" spreadMethod="reflect" id="fill0"><stop offset="0" stop-color="#B8B8B8"/><stop
        offset="0.5" stop-color="#D3D3D3"/><stop offset="1" stop-color="#E9E9E9"/></linearGradient></defs>
    <g transform="translate(3 3)"><path d="M79.6503 0.499836 2396.35 0.499836C2440.06 0.499836 2475.5 35.9367 2475.5 79.6503L2475.5 3496.35C2475.5 3540.06 2440.06 3575.5 2396.35 3575.5L79.6503 3575.5C35.9367 3575.5 0.499836 3540.06 0.499836 3496.35L0.499836 79.6503C0.499836 35.9367 35.9367 0.499836 79.6503 0.499836ZM103.297 36.9906C60.4755 36.9906 25.762 71.7041 25.762 114.525L25.762 3467C25.762 3509.82 60.4755 3544.53 103.297 3544.53L2372.7 3544.53C2415.52 3544.53 2450.24 3509.82 2450.24 3467L2450.24 114.525C2450.24 71.7041 2415.52 36.9906 2372.7 36.9906L103.297 36.9906Z" stroke="#404040" stroke-width="6.875" stroke-miterlimit="8" fill="#A0A0A0" fill-rule="evenodd"/>
        <path d="M1146.62 1788.23C1128.17 1788.23 1111.04 1784.27 1093.91 1777.68 1066.24 1767.14 1042.52 1747.36 1025.39 1722.32 1024.08 1722.32 1021.44 1721 1020.12 1721L862 2032.09 995.088 2001.77 1062.29 2127 1227 1805.36C1208.55 1802.73 1190.11 1794.82 1174.29 1785.59 1165.07 1786.91 1155.85 1788.23 1146.62 1788.23Z"
              fill="#F2F2F2" fill-rule="evenodd"/>
        <path d="M1422.23 1771.16C1403.77 1779.07 1384 1783.02 1364.23 1783.02 1353.68 1783.02 1344.45 1781.7 1333.91 1780.38 1314.14 1793.56 1291.73 1802.78 1268 1805.42L1442 2119 1510.55 2007.01 1645 2029.41 1477.59 1729C1463.09 1747.45 1444.64 1761.94 1422.23 1771.16Z"
              fill="#00B0F0" fill-rule="evenodd"/>
        <path d="M1245.23 1607.29C1120.03 1607.29 1017.24 1505.68 1017.24 1379 1017.24 1252.32 1120.03 1150.71 1245.23 1150.71 1370.43 1150.71 1473.22 1252.32 1473.22 1379 1473.22 1505.68 1370.43 1607.29 1245.23 1607.29ZM1634 1379C1634 1349.97 1622.14 1323.58 1602.37 1305.1 1612.92 1280.03 1614.23 1251 1602.37 1224.61 1591.83 1200.86 1573.38 1182.38 1550.98 1173.15 1549.66 1149.39 1540.43 1125.64 1521.98 1107.17 1500.9 1086.05 1474.54 1076.81 1446.86 1078.13 1437.64 1053.06 1417.87 1031.95 1390.2 1021.39 1366.47 1012.16 1340.12 1012.16 1317.71 1021.39 1299.26 1005.56 1276.86 995 1250.5 995 1221.51 995 1195.15 1006.88 1176.7 1026.67 1151.66 1016.11 1122.67 1014.79 1096.31 1026.67 1072.59 1037.23 1054.14 1055.7 1044.91 1078.13 1021.19 1079.45 997.47 1088.69 979.02 1107.17 957.934 1128.28 948.708 1154.67 950.025 1182.38 924.986 1191.62 903.9 1211.41 893.357 1239.12 884.132 1262.88 884.132 1289.27 893.357 1311.7 877.543 1330.18 867 1352.61 867 1379 867 1408.03 878.86 1434.42 898.629 1452.9 888.086 1477.97 886.769 1507 898.629 1533.39 909.172 1557.14 927.622 1575.62 950.025 1584.86 951.344 1608.61 960.57 1632.36 979.02 1650.84 1000.11 1671.95 1026.46 1681.19 1054.14 1679.87 1063.36 1704.94 1083.13 1726.05 1110.81 1736.61 1134.53 1745.85 1160.89 1745.85 1183.29 1736.61 1201.74 1752.44 1224.14 1763 1250.5 1763 1279.49 1763 1305.85 1751.12 1324.3 1731.33 1349.34 1741.89 1378.33 1743.21 1404.69 1731.33 1428.41 1720.77 1446.86 1702.3 1456.09 1679.87 1479.81 1678.55 1503.53 1669.31 1521.98 1650.84 1543.07 1629.72 1552.29 1603.33 1550.98 1575.62 1576.01 1566.38 1597.1 1546.59 1607.64 1518.88 1616.87 1495.12 1616.87 1468.73 1607.64 1446.3 1623.46 1429.15 1634 1405.39 1634 1379Z"
              fill="#F2F2F2" fill-rule="evenodd"/>
        <text font-family="Aptos,Aptos_MSFontService,sans-serif" font-weight="400" font-size="147"
              transform="matrix(1 0 0 1 778.238 1243)">Albert Serghino Watermelon</text>
        <g><g><g><path d="M3.58234e-07 368.018C3.58234e-07 365.413 20.8579 300.814 46.3507 224.463 71.8437 148.113 93.7031 78.3378 94.9272 69.4084 97.8491 48.0892 91.8042 47.8617 74.4385 68.6366 60.9467 84.7772 47.3493 89.1592 43.3223 78.6646 36.1337 59.9312 48.3321 36.5375 71.0791 25.4336 84.0329 19.1102 88.3513 18.7323 114.645 21.6215 176.079 28.3721 216.491 64.1126 216.491 111.695 216.491 134.8 194.025 158.916 169.802 161.811 148.473 164.361 144.608 159.332 156.209 144.123 165.393 132.081 165.78 130.144 163.762 106.275 161.348 77.7182 153.322 54.5502 144.14 49.6362 140.712 47.8016 130.846 46.3002 122.217 46.3002 103.08 46.3002 102.788 48.1971 116.836 81.212 122.506 94.5365 127.146 109.815 127.146 115.165 127.146 120.743 104.994 170.058 75.2124 230.782 46.649 289.022 19.6072 344.791 15.1193 354.715 7.37715 371.832 3.58234e-07 378.323 3.58234e-07 368.018ZM92.7819 292.782C92.7819 283.214 125.28 272.228 221.646 249.219 246.216 243.353 270.032 237.733 274.571 236.73 289.108 233.52 502.101 198.058 539.509 192.619 659.799 175.131 916.32 148.805 933.832 152.151 943.774 154.051 943.774 159.038 933.832 161.43 922.612 164.129 767.158 189.435 701.991 199.17 627.607 210.282 414.938 245.412 304.118 264.894 112.252 298.624 92.7819 301.193 92.7819 292.782ZM255.075 194.056C238.549 178.66 236.739 143.469 251.766 129.718 270.975 112.139 281.617 118.321 289.009 151.349 293.699 172.306 291.471 184.299 281.092 193.969 271.654 202.762 264.445 202.786 255.075 194.056ZM352.227 178.003C348.447 176.945 340.93 172.939 335.521 169.101 326.454 162.666 325.805 160.757 327.196 144.588 328.99 123.729 343.884 91.9819 360.722 73.1258 381.588 49.7572 413.927 51.5709 401.178 75.3949 398.824 79.7934 387.265 93.5997 375.492 106.075 345.148 138.222 342.728 152.826 366.643 159.467 383.388 164.118 400.199 164.076 417.518 159.339 438.655 153.559 443.291 147.698 443.291 126.746 443.291 116.767 444.827 104.561 446.707 99.6212 450.824 88.7922 468.514 80.6639 487.971 80.6639 500.218 80.6639 502.792 79.222 508.84 68.9737 519.881 50.2603 542.368 48.6101 543.547 66.427 544.87 86.4143 541.977 103.298 535.726 112.078 532.107 117.162 528.156 126.268 526.946 132.313 524.946 142.319 525.331 142.99 531.269 139.8 534.856 137.872 543.977 131.349 551.537 125.302 559.097 119.255 579.972 106.752 597.927 97.5168 615.883 88.2816 637.508 76.8457 645.985 72.1035 654.459 67.3617 665.431 63.482 670.363 63.482 683.036 63.482 720.128 88.3946 726.87 101.434 732.252 111.839 732.169 112.629 724.908 120.358 716.788 129.001 691.373 139.082 677.703 139.082 671.064 139.082 669.882 137.851 671.926 133.068 678.778 117.049 677.613 109.334 666.696 98.4161 660.713 92.4324 653.751 87.5366 651.225 87.5366 648.7 87.5366 629.106 99.3539 607.676 113.797 538.104 160.695 511.499 168.946 470.236 156.427 454.373 151.614 453.985 151.691 428.58 164.586 408.584 174.736 398.106 177.859 381.017 178.765 368.962 179.403 356.007 179.061 352.227 178.003ZM515.455 123.796C515.455 103.92 506.207 91.7599 495.465 97.5093 491.338 99.7171 487.964 104.33 487.964 107.76 487.964 116.097 507.929 143.328 512.135 140.728 513.96 139.6 515.455 131.98 515.455 123.796ZM751.028 135.939C749.959 134.211 754.241 129.609 760.543 125.715 766.845 121.819 773.814 114.656 776.027 109.796 781.075 98.7178 781.258 72.1472 776.347 62.9724 772.773 56.2959 772.46 56.2729 767.863 62.3391 759.206 73.765 761.856 51.5132 771.399 32.6837 785.062 5.72144 786.024 6.06233 805.037 44.582 821.69 78.3137 826.257 98.6646 819.927 110.904 814.016 122.338 805.738 126.842 777.842 133.809 753.007 140.011 753.519 139.97 751.028 135.939ZM846.524 120.018C837.837 97.3749 883.527 19.1415 914.922 2.90633 926.942-3.3098 931.114 0.125269 931.203 16.3178 931.231 21.5625 934.348 34.653 938.128 45.4078 952.337 85.8404 946.313 97.0866 901.101 114.523 870.204 126.438 849.779 128.494 846.524 120.018ZM914.396 87.2146C920.207 81.402 921.138 77.6058 919.245 67.4555 917.953 60.545 916.142 54.1279 915.221 53.1949 914.3 52.262 909.066 56.9011 903.592 63.504 889.995 79.9051 890.424 92.6434 904.623 94.1378 906.042 94.2873 910.437 91.1716 914.396 87.2146ZM285.506 86.1249C277.562 77.6691 276.853 66.8383 284.086 64.4305 290.792 62.1979 310.722 82.2411 308.236 88.718 305.088 96.9223 294.517 95.7165 285.506 86.1249Z" transform="matrix(1 0 0 1.00116 116 2833)"/></g></g></g>
        <text font-family="Aptos,Aptos_MSFontService,sans-serif" font-weight="700" font-size="83"
              transform="matrix(1 0 0 1 367.462 3167)">Pablo Picasso</text>
        <text font-family="Aptos,Aptos_MSFontService,sans-serif" font-weight="400" font-size="83"
              transform="matrix(1 0 0 1 168.479 3307)">General Manager: Training</text>
        <text font-family="Aptos,Aptos_MSFontService,sans-serif" font-weight="400" font-size="83"
              transform="matrix(1 0 0 1 1096.17 1561)">8001011234082</text>
        <text font-family="Aptos,Aptos_MSFontService,sans-serif" font-weight="400" font-size="64"
              transform="matrix(1 0 0 1 710.295 1555)">ID Number:</text>
        <text fill="#A6A6A6" font-family="Aptos,Aptos_MSFontService,sans-serif" font-weight="400" font-size="64"
              transform="matrix(1 0 0 1 1057.29 945)">Presented To:</text>
        <text fill="#A6A6A6" font-family="Aptos,Aptos_MSFontService,sans-serif" font-weight="400" font-size="64"
              transform="matrix(1 0 0 1 247.036 1764)">For the </text>
        <text fill="#A6A6A6" font-family="Aptos,Aptos_MSFontService,sans-serif" font-weight="400" font-size="64"
              transform="matrix(1 0 0 1 132.2 1841)">Successful </text>
        <text fill="#A6A6A6" font-family="Aptos,Aptos_MSFontService,sans-serif" font-weight="400" font-size="64"
              transform="matrix(1 0 0 1 111.002 1918)">Completion </text>
        <text fill="#A6A6A6" font-family="Aptos,Aptos_MSFontService,sans-serif" font-weight="400" font-size="64"
              transform="matrix(1 0 0 1 268.554 1995)">of  the </text>
        <text fill="#A6A6A6" font-family="Aptos,Aptos_MSFontService,sans-serif" font-weight="400" font-size="64"
              transform="matrix(1 0 0 1 219.902 2072)">Course:</text>
        <text font-family="Aptos,Aptos_MSFontService,sans-serif" font-weight="400" font-size="110"
              transform="matrix(1 0 0 1 928.278 1935)">Course Name</text>
        <text font-family="Aptos,Aptos_MSFontService,sans-serif" font-weight="700" font-size="83"
              transform="matrix(1 0 0 1 1812.08 3167)">Date</text>
        <text font-family="Aptos,Aptos_MSFontService,sans-serif" font-weight="400" font-size="83"
              transform="matrix(1 0 0 1 1637.39 3034)">1 January 2024</text>
        <path d="M960 481.806 960 586.517 1062 648.001 1062 532.457 960 471 960 481.806Z" fill="#DF2E28"
              fill-rule="evenodd"/>
        <path d="M1413 648 1515 586.538 1515 471 1413 532.429 1413 648Z" fill="#92C3EA" fill-rule="evenodd"/>
        <path d="M1157.25 251.694C1160.9 249.937 1164.9 249.029 1168.95 249.04 1183.94 249.036 1196.1 261.187 1196.11 276.183 1196.11 286.644 1190.1 296.176 1180.67 300.687L1155.01 312.946 1231 359.001 1231 242.802 1129 181 1129 265.167Z"
              fill="#81BB42" fill-rule="evenodd"/>
        <path d="M1244 242.778 1244 359.001 1320.01 312.957 1294.36 300.703C1280.84 294.231 1275.12 278.025 1281.6 264.505 1286.1 255.091 1295.61 249.095 1306.05 249.082 1310.1 249.076 1314.1 249.987 1317.76 251.748L1346 265.23 1346 181Z"
              fill="#B3D78D" fill-rule="evenodd"/>
        <path d="M1286.66 202.101 1299.31 194.382 1346 166 1237.5 100 1190.81 128.382 1178.16 136.101 1129 166 1237.5 232.001 1286.66 202.101Z"
              fill="#CDE4B3" fill-rule="evenodd"/>
        <path d="M1130.31 483.514 1177 455.293 1095.62 406 1095.62 436.483C1095.62 451.447 1083.48 463.579 1068.5 463.579 1053.52 463.579 1041.38 451.447 1041.38 436.483L1041.38 406 1021.81 417.834 1009.16 425.488 960 455.293 1068.5 521.001 1117.66 491.196Z"
              fill="#F2ABA9" fill-rule="evenodd"/>
        <path d="M1468.31 483.514 1515 455.293 1433.62 406 1433.62 436.483C1433.62 451.447 1421.48 463.579 1406.5 463.579 1391.52 463.579 1379.38 451.447 1379.38 436.483L1379.38 406 1359.81 417.827 1347.16 425.488 1298 455.293 1406.5 521.001 1455.66 491.196Z"
              fill="#B7D7F1" fill-rule="evenodd"/>
        <path d="M1298 481.806 1298 558.555 1317.74 546.508C1330.51 538.709 1347.23 542.689 1355.07 555.397 1362.92 568.105 1358.92 584.73 1346.14 592.53L1327.18 604.132 1400 648.001 1400 532.457 1298 471Z"
              fill="#4A9BDC" fill-rule="evenodd"/>
        <path d="M1128.31 589.506C1115.79 581.311 1112.32 564.575 1120.57 552.126 1128.72 539.81 1145.31 536.282 1157.82 544.202L1177 556.548 1177 471 1075 532.429 1075 648 1149.47 603.128Z"
              fill="#EC827E" fill-rule="evenodd"/>
        <path d="M1237.17 642C1234.56 642.001 1232 641.24 1229.81 639.811L1135.37 578.219C1129.03 574.226 1127.09 565.809 1131.06 559.418 1135.02 553.027 1143.38 551.082 1149.73 555.074 1149.86 555.152 1149.98 555.234 1150.1 555.316L1237.37 612.228 1325.36 557.861C1331.74 553.92 1340.08 555.933 1344 562.357 1347.91 568.781 1345.91 577.184 1339.53 581.125L1244.25 639.988C1242.12 641.303 1239.67 641.999 1237.17 642Z"
              fill-rule="evenodd"/>
        <path d="M1082.11 436.508 1082.11 332.986 1175.29 288.676C1182.04 285.463 1184.9 277.406 1181.67 270.68 1178.44 263.955 1170.35 261.108 1163.6 264.322L1062.72 312.309C1058.01 314.546 1055 319.281 1055 324.479L1055 436.508C1055 443.96 1061.07 450.001 1068.55 450.001L1068.55 450.001C1076.04 450.001 1082.11 443.96 1082.11 436.508Z"
              fill-rule="evenodd"/>
        <path d="M1420 436.505 1420 324.456C1419.99 319.268 1416.99 314.547 1412.29 312.31L1311.4 264.322C1304.65 261.108 1296.56 263.955 1293.33 270.682 1290.1 277.408 1292.96 285.467 1299.72 288.681L1392.89 332.964 1392.89 436.505C1392.89 443.959 1398.96 450 1406.45 450 1413.93 450 1420 443.959 1420 436.505Z"
              fill-rule="evenodd"/>
        <text font-family="Aptos,Aptos_MSFontService,sans-serif" font-style="italic" font-weight="700" font-size="147"
              transform="matrix(1 0 0 1 338.021 818)">Certificate of Completion 7123</text>
        <text fill="#A6A6A6" font-family="Aptos,Aptos_MSFontService,sans-serif" font-weight="400" font-size="64"
              transform="matrix(1 0 0 1 241.627 2361)">A Skills </text>
        <text fill="#A6A6A6" font-family="Aptos,Aptos_MSFontService,sans-serif" font-weight="400" font-size="64"
              transform="matrix(1 0 0 1 66.4295 2438)">Development </text>
        <text fill="#A6A6A6" font-family="Aptos,Aptos_MSFontService,sans-serif" font-weight="400" font-size="64"
              transform="matrix(1 0 0 1 118.977 2515)">Programme </text>
        <text fill="#A6A6A6" font-family="Aptos,Aptos_MSFontService,sans-serif" font-weight="400" font-size="64"
              transform="matrix(1 0 0 1 169.577 2592)">Linked to:</text>
        <text font-family="Aptos,Aptos_MSFontService,sans-serif" font-weight="400" font-size="110"
              transform="matrix(1 0 0 1 819.9 2460)">Unit Standard ABC123</text>
        <path d="M2273.41 3177.98C2300.97 3208.05 2338.97 3226.58 2379.71 3229.82 2387.28 3230.53 2393.05 3236.88 2393 3244.46L2393 3281.41C2393 3361.72 2341.72 3435.19 2270.53 3480.66 2265.64 3483.78 2259.36 3483.78 2254.47 3480.66 2183.28 3435.19 2132 3361.72 2132 3281.41L2132 3244.46C2131.95 3236.88 2137.71 3230.53 2145.29 3229.82 2186.03 3226.58 2224.03 3208.05 2251.6 3177.98 2256.79 3171.98 2265.89 3171.31 2271.91 3176.49 2272.44 3176.94 2272.94 3177.44 2273.41 3177.98Z"
              fill="#F2F2F2" fill-rule="evenodd"/>
        <path d="M2241.96 3293 2272 3293 2242.03 3241C2214.29 3247.5 2191.28 3266.79 2180 3293Z" fill="#A6A6A6"
              fill-rule="evenodd"/>
        <path d="M2292.48 3309.35 2292.43 3309.39 2298.01 3319 2328 3267.38C2311.08 3249.26 2287.32 3238.98 2262.46 3239 2258.96 3239.01 2255.47 3239.22 2252 3239.62Z"
              fill="#A6A6A6" fill-rule="evenodd"/>
        <path d="M2289 3354 2348.2 3354C2356.34 3326.97 2351.25 3297.68 2334.48 3275Z" fill="#A6A6A6"
              fill-rule="evenodd"/>
        <path d="M2283.04 3363 2253 3363 2282.97 3415C2310.71 3408.5 2333.73 3389.21 2345 3363Z" fill="#A6A6A6"
              fill-rule="evenodd"/>
        <path d="M2232.53 3346.7 2232.59 3346.67 2226.97 3337 2197 3388.61C2213.92 3406.73 2237.67 3417.02 2262.55 3417 2266.04 3416.99 2269.53 3416.78 2273 3416.38Z"
              fill="#A6A6A6" fill-rule="evenodd"/>
        <path d="M2236 3302 2176.81 3302C2168.67 3329.02 2173.74 3358.31 2190.5 3381Z" fill="#A6A6A6"
              fill-rule="evenodd"/>
        <text fill="#A6A6A6" font-family="Aptos,Aptos_MSFontService,sans-serif" font-weight="700" font-size="64"
              transform="matrix(1 0 0 1 1964.71 3364)">SETA</text></g></svg>
